<svg xmlns="http://www.w3.org/2000/svg" width="671" height="667" fill="none"><mask id="a" fill="#fff"><path fill-rule="evenodd" d="M0 634V43L33 0h596.985L671 43v591l-33 33H33L0 634Zm383-190H217.662v185.051H383V444Z" clip-rule="evenodd"/></mask><path fill="#092D5D" fill-opacity=".3" fill-rule="evenodd" d="M0 634V43L33 0h596.985L671 43v591l-33 33H33L0 634Zm383-190H217.662v185.051H383V444Z" clip-rule="evenodd"/><path fill="#012640" d="m0 43-.793-.609-.207.27V43h1Zm0 591h-1v.414l.293.293L0 634ZM33 0v-1h-.493l-.3.391L33 0Zm596.985 0 .723-.69-.295-.31h-.428v1ZM671 43h1v-.4l-.276-.29L671 43Zm0 591 .707.707.293-.293V634h-1Zm-33 33v1h.414l.293-.293L638 667Zm-605 0-.707.707.293.293H33v-1Zm350-223h1v-1h-1v1Zm-165.338 0v-1h-1v1h1Zm0 185.051h-1v1h1v-1Zm165.338 0v1h1v-1h-1ZM383 514h-1 1ZM-1 43v591h2V43h-2ZM32.207-.609l-33 43L.793 43.61l33-43-1.586-1.22ZM217.015-1H33v2h184.015v-2Zm0 2h.647v-2h-.647v2Zm.647 0H383v-2H217.662v2Zm412.323-2H383v2h246.985v-2Zm41.739 43.31-41.016-43-1.447 1.38 41.015 43 1.448-1.38ZM672 238V43h-2v195h2Zm0 276V238h-2v276h2Zm0 120V514h-2v120h2Zm-33.293 33.707 33-33-1.414-1.414-33 33 1.414 1.414ZM383 668h255v-2H383v2Zm-350 0h350v-2H33v2ZM-.707 634.707l33 33 1.414-1.414-33-33-1.414 1.414ZM383 443H217.662v2H383v-2ZM218.662 629.051V444h-2v185.051h2Zm164.338-1H217.662v2H383v-2ZM382 514v115.051h2V514h-2Zm0-70v70h2v-70h-2Z" mask="url(#a)"/><g clip-path="url(#b)"><path fill="#021017" stroke="#012640" d="M180.977 8.75h444.802L662.5 49.09v585.66H9.5V49.059L38.755 8.75h142.222Z"/><path stroke="#031620" d="M10 335.75h652m-652 16h652m-652 16h652m-652 16h652m-652-40h652m-652 16h652m-652 16h652m-652 16h652m-652 16h652m-652 16h652m-652 16h652m-652-40h652m-652 16h652m-652 16h652m-652-160h652m-652 16h652m-652 16h652m-652 16h652m-652-40h652m-652 16h652m-652 16h652m-652 16h652m-652-120h652m-652 16h652m-652 16h652m-652 16h652m-652-40h652m-652 16h652m-652 16h652m-652 16h652m-652-120h652m-652 16h652m-652 16h652m-652 16h652m-652-40h652m-652 16h652m-652 16h652m-652 16h652m-650-120h650m-652 16h652m-652 16h652m-652 16h652m-652-40h652m-652 16h652m-652 16h652m-652 16h652m-445-120h414m-429 16h445m-460 16h475m-634 16h634m-453-40h430m-445 16h460m-618 16h626m-642 16h642"/></g><defs><clipPath id="b"><path fill="#fff" d="M9 8.25h654v626H9z"/></clipPath></defs></svg>
